<?xml version="1.0" encoding="UTF-8" standalone="no"?>
<!-- Created with Inkscape (http://www.inkscape.org/) -->

<svg
   xmlns:dc="http://purl.org/dc/elements/1.1/"
   xmlns:cc="http://creativecommons.org/ns#"
   xmlns:rdf="http://www.w3.org/1999/02/22-rdf-syntax-ns#"
   xmlns:svg="http://www.w3.org/2000/svg"
   xmlns="http://www.w3.org/2000/svg"
   xmlns:sodipodi="http://sodipodi.sourceforge.net/DTD/sodipodi-0.dtd"
   xmlns:inkscape="http://www.inkscape.org/namespaces/inkscape"
   width="744.09448819"
   height="1052.3622047"
   id="svg2"
   version="1.1"
   inkscape:version="0.48.0 r9654"
   sodipodi:docname="csense_icon.svg">
  <defs
     id="defs4">
    <marker
       id="ArrowStart"
       viewBox="0 0 10 10"
       orient="auto"
       markerHeight="3"
       markerWidth="4"
       refY="5"
       refX="10"
       markerUnits="strokeWidth">
      <path
         id="path10"
         d="M 10,0 0,5 10,10 z" />
    </marker>
    <marker
       id="ArrowEnd"
       viewBox="0 0 10 10"
       orient="auto"
       markerHeight="3"
       markerWidth="4"
       refY="5"
       refX="0"
       markerUnits="strokeWidth">
      <path
         id="path7"
         d="M 0,0 10,5 0,10 z" />
    </marker>
    <linearGradient
       id="linearGradient3783">
      <stop
         offset="0"
         style="stop-color:#deaa87;stop-opacity:0.49803922"
         id="stop3791" />
      <stop
         offset="1"
         style="stop-color:#d8c3b4;stop-opacity:0.04705882"
         id="stop3787" />
    </linearGradient>
    <clipPath
       clipPathUnits="userSpaceOnUse"
       id="clipPath4544">
      <path
         transform="matrix(2.3652111,0,0,2.3876303,641.57522,-658.67872)"
         d="m -15.628819,520.20099 a 60.17094,60.17094 0 1 1 -120.341881,0 60.17094,60.17094 0 1 1 120.341881,0 z"
         sodipodi:ry="60.17094"
         sodipodi:rx="60.17094"
         sodipodi:cy="520.20099"
         sodipodi:cx="-75.799759"
         id="path4546"
         style="color:#000000;fill:#5aaba2;fill-opacity:1;fill-rule:evenodd;stroke:none;stroke-width:1px;marker:none;visibility:visible;display:inline;overflow:visible;enable-background:accumulate"
         sodipodi:type="arc" />
    </clipPath>
    <clipPath
       clipPathUnits="userSpaceOnUse"
       id="clipPath3852">
      <path
         sodipodi:type="arc"
         style="color:#000000;fill:#6db961;fill-opacity:1;fill-rule:evenodd;stroke:none;stroke-width:1px;marker:none;visibility:visible;display:inline;overflow:visible;enable-background:accumulate"
         id="path3854"
         sodipodi:cx="-15.628816"
         sodipodi:cy="542.86279"
         sodipodi:rx="131.28206"
         sodipodi:ry="131.28206"
         d="m 115.65324,542.86279 a 131.28206,131.28206 0 1 1 -262.56411,0 131.28206,131.28206 0 1 1 262.56411,0 z"
         transform="matrix(1.0535714,0,0,1.0535714,474.18484,7.0710543)" />
    </clipPath>
  </defs>
  <sodipodi:namedview
     id="base"
     pagecolor="#ffffff"
     bordercolor="#666666"
     borderopacity="1.0"
     inkscape:pageopacity="0.0"
     inkscape:pageshadow="2"
     inkscape:zoom="0.63984375"
     inkscape:cx="183.47968"
     inkscape:cy="535.34778"
     inkscape:document-units="px"
     inkscape:current-layer="layer1"
     showgrid="false"
     inkscape:window-width="1171"
     inkscape:window-height="666"
     inkscape:window-x="64"
     inkscape:window-y="12"
     inkscape:window-maximized="0" />
  <metadata
     id="metadata7">
    <rdf:RDF>
      <cc:Work
         rdf:about="">
        <dc:format>image/svg+xml</dc:format>
        <dc:type
           rdf:resource="http://purl.org/dc/dcmitype/StillImage" />
        <dc:title />
      </cc:Work>
    </rdf:RDF>
  </metadata>
  <g
     inkscape:label="Layer 1"
     inkscape:groupmode="layer"
     id="layer1">
    <rect
       style="fill:#694225;fill-opacity:1;fill-rule:evenodd;stroke:none"
       id="rect4431"
       width="600"
       height="600"
       x="104.71307"
       y="217.92993"
       rx="75"
       ry="75"
       inkscape:export-filename="/Users/jts/programming/csense_trunk/bootplate_22/apple-touch-icon-114x114-precomposed.png"
       inkscape:export-xdpi="17.1"
       inkscape:export-ydpi="17.1" />
    <g
       style="fill-rule:evenodd"
       transform="matrix(1.25,0,0,1.25,-1279.8683,38.848788)"
       id="g18" />
    <g
       id="g3920">
      <g
         id="g4598">
        <path
           inkscape:connector-curvature="0"
           d="m 619.90437,492.48681 a 207.45154,205.16347 0 0 1 -414.90308,0 207.45154,205.16347 0 1 1 414.90308,0 z"
           id="path6818"
           style="fill:#717171;fill-opacity:1;fill-rule:nonzero;stroke:none" />
        <path
           style="fill:#d1d1d1;fill-opacity:1;fill-rule:evenodd;stroke:none"
           d="m 354.47289,419.43092 c 15.37143,6.23513 -20.92445,24.81445 -5.97045,4.82059 0.36592,-3.91191 4.35915,-2.37223 5.97045,-4.82059 z m -30.77717,-66.68361 c 12.6686,-4.55123 33.5786,-22.11867 34.93772,-25.96294 -5.64039,-6.31002 -8.76634,2.86057 -11.86128,-4.11776 -10.12783,0.9677 7.26845,1.12571 -3.71728,6.36504 -6.45924,5.89069 -24.28989,22.66027 -26.38099,19.06647 14.33523,-14.72164 -20.39588,18.82588 -9.52885,0.21307 5.28698,-10.57105 15.25319,-7.44119 23.94332,-15.77673 -12.57568,-0.83736 -26.46113,14.17491 -18.97901,0.41348 -13.53351,2.15787 -29.68221,23.40566 -32.48777,26.5326 8.34259,-1.07057 22.38321,-21.63653 26.96289,-12.75665 -7.74064,7.59073 -18.29529,16.10997 -6.12979,11.69282 -13.73195,11.64455 -23.21106,34.58921 -33.77838,43.90679 -8.04117,-7.16184 18.10511,-18.63601 0.91708,-14.67277 -8.53028,-3.86476 -2.99732,18.46536 -13.39848,10.54608 8.76132,-13.67761 -12.98567,1.34468 -15.3351,7.75901 -14.31203,16.47591 -17.33401,39.63045 -21.23288,60.3485 -6.68282,46.14559 3.52531,94.62691 31.06534,132.60503 36.56518,55.37197 102.86035,89.32445 169.24245,85.50702 -8.92083,-2.03141 -24.1112,-16.3944 -9.3167,-21.61749 -4.6901,-7.78665 -16.25711,-20.00429 -15.19243,-25.64329 5.02897,-18.00411 -22.22958,-11.77812 -32.0819,-18.91101 -16.9299,3.22734 -36.63241,-2.58828 -49.5484,-13.84822 -14.45739,-12.74091 -24.92298,-32.38057 -15.81061,-51.14119 -3.27062,-17.1271 20.64976,-26.81718 27.66215,-35.53432 1.88213,-7.04005 25.18305,-19.83455 7.63543,-20.84923 0.58129,-14.72882 3.05539,-43.19978 23.69734,-28.47899 20.96028,-1.67582 -11.61663,-30.42766 12.9002,-23.6629 16.53562,-8.65762 -26.55141,1.21553 -7.70745,-9.34007 -5.44399,-3.10656 8.5184,-8.73645 1.02665,-14.05886 0.98161,-4.30111 -2.67353,-13.20428 1.58119,-17.03435 11.55904,4.30906 3.70139,16.70459 12.71094,26.58731 -3.8001,15.40205 22.57527,-1.81262 16.24234,-11.57749 11.49998,-13.34712 3.4794,1.87764 7.00746,7.29996 -1.61418,-4.27514 11.01413,-8.01021 2.38955,-17.65858 -17.47934,10.86524 -16.73997,-17.09784 -1.63689,-20.80399 9.92183,-7.93785 13.88776,-29.66619 31.85448,-21.00505 11.38857,-0.19483 23.03146,11.37723 9.31289,10.81885 3.65529,10.13481 12.5634,8.86327 10.23384,2.88787 2.75542,-5.98151 -3.39866,-19.18159 4.2912,-11.21047 4.95949,13.86137 5.38549,-0.5443 6.71294,-5.08234 11.48058,2.92649 5.12362,-10.68747 -4.59355,-5.97784 -15.65469,3.88667 -10.11626,-31.7238 -5.76328,-10.47184 -0.63266,10.7688 36.61484,12.19683 15.55679,3.85282 -13.63286,-5.89288 1.6003,-8.23254 -0.36192,-11.66669 -5.05766,-8.99424 -21.19111,-19.36264 -0.7356,-17.0216 -0.17537,-13.69859 -14.33971,-6.32869 -23.89203,-12.75768 4.18391,0.9044 17.10174,3.36965 4.34,-3.11764 -23.02491,-12.41131 -50.50621,-6.70411 -75.12936,-3.47243 -12.09686,5.94667 11.563,7.60079 -3.83253,11.53044 4.5158,-0.27916 13.75432,7.04905 12.15082,11.64182 21.66395,6.81553 0.0221,19.81304 -12.29172,28.63288 -11.57695,4.12449 -8.42172,11.78216 -23.80522,7.15604 -14.24722,1.53562 -45.67775,28.12101 -27.74929,-2.90465 2.14027,-2.86331 4.65061,-5.61873 7.90368,-7.22884 z m 180.67331,303.78197 c 5.54331,-8.9813 17.37639,-24.49939 26.87726,-23.27372 -5.55366,10.5581 -16.02712,18.73718 -26.87726,23.27372 z m 2.27993,-14.249 c -5.07717,16.20617 -26.236,18.67431 -37.03616,30.34006 -7.62597,8.53552 18.67559,-4.51945 23.25487,-6.31676 55.06616,-25.61552 97.84362,-77.76166 107.95595,-138.15697 3.42508,-19.9089 6.04684,-40.82726 -1.72571,-60.06866 -8.25261,-19.67614 -3.81129,24.71947 -4.68436,32.18587 2.7163,8.62295 -0.85994,33.9745 -7.12092,12.89969 -1.31278,-14.26711 -7.36961,-11.05259 -17.20793,-17.93607 -8.29354,12.58613 -20.9378,12.19489 -31.27232,16.05895 -8.31206,-11.55114 -19.02725,-1.69105 -5.97525,5.3007 9.7952,8.22775 15.25521,-3.06383 18.55943,-6.72327 18.22683,11.80187 -3.51171,34.81757 -10.55622,48.72045 -7.06833,9.48738 -23.78143,25.36483 -24.82499,4.19942 -12.32829,-9.11208 -20.34295,-22.80333 -28.88895,-33.40234 -13.49106,6.4375 12.62839,22.98095 14.31559,34.61812 11.62475,10.52837 26.32794,27.23218 37.68113,7.17725 15.45301,-13.6129 -0.23901,19.58155 -5.19965,24.19902 -7.29734,15.5688 -30.264,29.08732 -27.27451,46.90454 z m -28.49799,-4.5591 c 14.99986,-0.50821 6.3084,-18.4552 0.87114,-3.00526 l -0.87114,3.00526 z M 408.04784,342.488 c 8.63214,-7.3071 8.08755,5.83143 1.32133,7.09703 2.20953,11.49019 -11.13432,-15.5101 -1.32133,-7.09703 z m 11.96907,42.17606 c -3.5411,8.33729 -8.32926,14.76342 -1.84411,21.34952 1.44872,11.70924 -28.28795,25.77841 -4.04373,21.62198 9.90129,-0.11656 10.99419,-6.88571 13.28439,-14.0858 10.1182,-1.8809 -7.95769,-5.07613 3.90484,-8.1822 18.28989,-9.96469 -12.18508,6.86375 -10.01557,-6.69261 -4.57344,-6.53164 14.68874,-18.42751 -1.28582,-14.01089 z m 35.96769,72.63487 c -6.30797,14.1338 -2.10126,24.74452 14.29254,16.3797 8.27183,-2.61805 30.18808,1.39634 15.82891,-12.02953 -12.63019,-9.59564 -22.14339,11.39844 -22.65824,-6.46443 -3.69474,2.16331 -6.54434,-5.32553 -7.46321,2.11426 z m 59.78332,17.41746 c 17.81502,6.43044 13.85897,-11.46723 3.71163,-18.19916 -6.5102,-6.57286 -12.25114,-10.3474 -8.19063,-20.12832 -19.92039,3.42224 -5.63514,24.19305 5.24197,28.52671 0.18485,3.28665 -0.55563,6.53267 -0.76297,9.80077 z m -121.96907,20.51785 c -16.42535,6.48888 4.53415,-35.14788 -0.63032,-10.65889 0.52411,3.44054 2.69478,7.31059 0.63032,10.65889 z m -50.15544,4.55986 c 13.67701,13.22216 37.03055,-1.03601 53.87383,4.97278 3.33054,6.43174 -8.17151,14.76883 7.11109,14.40474 11.42202,5.36136 26.85109,19.34077 30.71946,-1.29337 14.93327,5.29742 44.42035,8.37079 47.52226,-11.71181 1.61018,-11.30613 1.0157,-19.82283 -10.87913,-10.48852 -12.36443,7.47753 -21.74633,2.91867 -23.67538,-11.02087 -14.57377,-3.09048 -6.31133,7.52167 -2.63407,13.56623 -8.08152,-8.20274 -5.07751,12.77609 -10.98433,0.47677 -6.33325,-12.41944 -21.22238,-32.01331 -30.59274,-32.93003 -0.30576,13.62744 25.00985,18.45658 14.34038,26.1154 5.78768,12.88317 -22.12436,10.7136 -10.41614,5.57498 17.24412,-4.80996 -12.53333,-18.28697 -14.30903,-26.47999 -9.75401,8.21276 -17.10464,-3.70179 -22.50489,7.43711 -10.86424,8.16655 -9.62123,23.92855 -27.57131,21.37658 z m 2.27993,-120.82948 c 6.85591,-16.90567 19.97813,10.97841 0.45649,4.90589 -6.96109,-1.62625 -2.00404,-3.26657 -0.45649,-4.90589 z"
           id="path6822"
           inkscape:connector-curvature="0" />
      </g>
      <g
         id="g3912">
        <g
           id="g3856">
          <g
             clip-path="url(#clipPath3852)"
             id="g3840">
            <path
               style="fill:#6db961;fill-opacity:1;fill-rule:nonzero;stroke:none"
               id="path3001"
               d="m 690.03882,524.49264 a 213.51522,211.21951 0 0 1 -427.03045,0 213.51522,211.21951 0 1 1 427.03045,0 z"
               inkscape:connector-curvature="0" />
            <path
               style="fill:#ffffff;fill-opacity:1;fill-rule:evenodd;stroke:none"
               id="path16"
               d="m 409.26912,439.31507 c 19.24345,6.00466 -21.89706,25.88757 -8.69192,12.33747 3.47952,-4.44064 -1.29525,-9.86476 7.3066,-10.80574 l 0.55577,-1.08195 0.82955,-0.44978 z m -35.87564,-77.77264 c 14.0311,-4.20933 15.18316,-11.02232 29.31305,-17.59091 2.91957,-6.86866 9.56861,-9.40829 15.19919,-12.98704 -12.72202,2.36064 -2.53995,-9.30042 -15.37363,0.63411 5.48762,-9.47423 -17.39194,-3.04147 -1.23582,-3.29319 -7.97698,9.03441 -24.83011,23.56426 -37.4261,30.86974 -2.18964,-1.53546 16.06348,-16.67825 0.1977,-3.96083 -4.9966,9.09549 -20.54944,12.28656 -9.96681,1.1543 7.59963,-4.04316 4.72452,-13.4598 10.70254,-8.02275 9.86735,-4.25293 7.61855,-5.29914 17.20717,-10.37756 -8.08745,-1.93037 -18.77544,6.84307 -27.21971,8.9497 22.30962,-18.34383 -14.0973,-3.10069 -18.77875,7.8008 -8.21007,8.27277 -27.74354,25.26076 -8.49652,10.57531 4.55966,2.45885 28.32073,-25.33368 25.93185,-10.77675 -5.28332,4.83013 -7.25426,8.98411 -13.38077,12.18291 -9.88644,10.55595 19.67053,-9.30324 1.48292,5.51172 -12.09162,8.04511 -10.32755,23.9421 -22.38349,31.49195 -7.91722,2.4463 -10.12499,22.84182 -12.23792,15.65887 -10.9123,-10.04803 22.32133,-18.72694 3.35044,-17.86869 -1.44233,-3.74674 -2.42701,5.78533 -6.64362,-0.0683 -5.21527,7.10845 1.19105,16.58508 -8.9586,14.71297 -9.49812,0.0752 12.66236,-10.67691 -4.53771,-7.624 -2.69427,-1.28293 -7.03062,5.6967 -11.35499,11.46771 -12.40671,9.07208 -16.49046,22.8534 -21.30211,38.23723 -13.97834,44.69158 -13.50462,104.01234 4.35147,146.08233 39.28824,92.56544 124.1971,148.16482 221.41062,144.06387 -9.14463,-3.75692 -30.0042,-16.85258 -10.86007,-25.21235 -10.82818,-7.58504 -5.75379,-19.06597 -20.59544,-26.58891 9.81651,-8.45404 2.14068,-20.86759 -10.21606,-18.20142 -10.98979,1.65324 -16.87502,-11.5358 -28.35922,-5.86461 -16.1662,1.07051 -33.77111,-4.66228 -48.46048,-12.32116 -13.86882,-13.30201 -29.11644,-29.85552 -28.08451,-48.48182 3.64839,-10.06331 5.92951,-16.53594 3.50649,-26.14067 11.65689,-10.31564 16.69861,-26.69533 32.55427,-26.5889 -2.88564,-13.19842 34.56107,-28.51059 9.50792,-29.33238 -0.42958,-12.90387 1.2645,-16.88227 6.51915,-29.61071 -1.61384,-21.91372 22.43727,5.71389 28.12457,-6.95249 11.46824,-13.0355 -20.54354,-27.50463 4.69325,-23.93078 9.71238,0.12637 13.02193,-8.43896 0.31796,-4.56481 -9.81501,-0.69661 -18.5441,1.58084 -5.97898,-6.64723 -10.14307,-2.94012 11.54097,-7.06413 0.82731,-13.88938 -0.57906,-3.91607 4.45482,-5.52033 -0.81667,-5.05525 -2.69115,-3.68126 7.77576,-8.55581 -1.27643,-10.68523 4.80004,-13.74733 4.21404,-2.49121 7.40283,-4.35592 3.88166,-0.76746 8.81809,4.33851 2.52512,10.07358 5.42765,9.84082 12.5124,21.05036 9.27566,27.90036 5.7443,-4.59126 16.78385,-8.31476 19.93081,-12.62946 -8.42842,-15.79944 16.98063,-23.51268 5.67543,-9.2665 -4.55708,10.59743 8.34741,8.93293 -0.0614,2.71893 6.84472,1.57363 11.18498,-5.45055 5.14379,-12.98756 -1.09969,-10.54913 -13.09542,9.08362 -15.60456,-3.34102 -7.8267,-18.81652 20.5415,-21.52381 23.96086,-37.54047 -6.79284,1.49225 16.08483,-21.03797 25.98372,-10.54282 10.93142,0.5247 32.46564,13.74844 9.92267,11.07171 0.66082,-0.74426 3.42146,12.06786 11.07619,10.44361 8.65196,2.04335 -5.8825,-6.22776 1.78595,-5.52926 -1.62568,-6.26098 5.71722,-10.3726 -2.11038,-15.48794 12.95706,-1.91055 2.3558,5.27453 10.96096,9.2139 8.91876,6.04148 -5.25216,-20.59485 7.64061,-10.543 16.29661,-17.2684 -19.24964,-1.11528 -19.89136,-16.85001 -7.21304,-12.25766 4.25745,-21.37587 4.15471,-4.52031 3.10552,12.21662 17.08103,8.68592 26.61751,10.47011 4.26274,0.85567 -22.32739,-11.56368 -13.67506,-15.6887 6.16,-1.94746 8.55155,0.009 4.76956,-3.89467 -2.56573,-4.49583 -7.77785,-9.82174 -10.23486,-14.48381 -16.20075,-9.04389 20.0324,-0.17001 7.59575,-9.54041 -5.44801,0.16966 4.41744,-9.69807 -9.29405,-7.47262 -9.72474,6.32685 -27.49588,-10.58622 -8.7119,-1.02652 14.56196,1.186 -15.12364,-12.36064 -22.34191,-13.22885 -23.20664,-2.79126 -41.60581,-0.48174 -64.24258,2.42693 -12.42801,1.59692 -10.33149,10.54524 -1.04348,8.66568 -2.51072,7.18482 -15.1218,5.23844 -1.62453,5.85436 -8.47495,3.58773 17.42366,4.64118 5.61052,12.09325 6.97186,3.28881 17.98375,8.68918 10.48663,10.07519 14.97287,-0.35717 -10.69879,12.09672 -11.40674,18.36426 -10.15479,4.04023 -18.86233,14.9072 -22.98362,10.79166 7.56934,5.82321 -7.32925,6.87426 -11.42346,4.58941 -10.14556,-3.65536 -24.60707,6.42711 -34.58439,13.33519 -17.75028,12.30806 -5.69641,-19.62949 7.46153,-25.91366 l 0,0 z m 210.60321,354.29892 c 5.64723,-11.67311 16.13763,-19.54187 27.02886,-28.11247 13.92625,-5.12152 -9.29757,19.7226 -17.07734,22.76048 -3.10141,2.13811 -6.17543,4.50007 -9.95152,5.35199 z m 2.65762,-16.61852 c -1.50544,16.65961 -25.44233,17.10479 -33.10342,29.36352 -7.74885,3.87872 -24.31833,14.83194 -4.7547,7.71072 50.05389,-18.21976 76.64379,-44.39234 92.78614,-60.96049 36.89836,-37.87163 60.11126,-95.20233 58.7757,-157.62018 -1.75468,-4.56547 -10.26722,-44.66166 -11.4535,-25.6355 -0.13844,20.11147 -0.60334,40.30605 1.07239,60.31081 -5.74186,26.75218 -13.93836,-31.25965 -15.51694,-16.53292 -5.88359,-1.4223 -6.54928,-4.53437 -13.86131,-8.14272 -5.34197,8.1166 -17.25745,18.28043 -24.7279,12.16775 -5.14958,15.75221 -18.34799,2.25378 -23.30667,-1.52442 -12.53745,10.63458 17.79974,22.62543 21.14631,14.3664 4.03868,-12.29131 1.54448,-9.66213 9.20834,-5.06011 9.73941,2.06516 1.62018,20.68448 -1.33313,29.15022 -7.95812,10.67094 -11.95055,25.79815 -25.1653,34.50353 -7.51764,9.83821 -17.24075,15.17243 -17.14342,-2.49873 -8.93699,-12.94129 -20.48335,-15.84872 -27.72087,-30.50916 -0.77939,-10.93474 -9.98407,-13.9042 -12.55549,-7.24408 -6.2296,-4.09392 9.34868,17.71215 13.07505,20.70351 5.73088,16.31625 16.21708,27.60208 32.51654,32.33827 1.3328,21.91032 35.45991,-33.72591 26.74218,-4.97371 -6.20835,21.43261 -22.99691,36.72243 -34.40497,55.18194 -6.65506,7.61821 -15.79773,16.63325 -10.27503,24.90535 z m -33.21889,-5.31725 c 7.18889,0.25163 16.67119,-12.08951 7.61112,-11.04109 -6.15821,0.14226 -5.97031,6.77477 -7.61112,11.04109 z M 471.71918,349.57707 c 5.87559,-8.62024 11.45011,1.47593 5.81759,1.97666 7.00459,8.00448 -5.99154,-2.68266 -4.24594,10.06455 -2.04711,-0.75863 -11.07271,-20.09761 -1.57165,-12.04121 z m 13.95183,49.18965 c 1.40135,8.75554 -15.94677,14.57711 -1.32925,21.27166 -1.52269,8.97444 -8.57094,24.45846 -16.19389,24.7381 -10.22675,7.35133 12.51377,6.47149 16.16314,0.81462 8.40947,3.51346 6.48847,-3.74859 8.16315,-8.30185 -3.64434,-10.22993 12.29298,0.94845 3.39248,-11.14711 -9.06591,7.83221 5.77667,-8.65627 11.59071,-6.10376 -2.65744,-6.89808 -21.69772,10.97367 -18.46498,-3.32405 -12.36299,-8.17766 19.62758,-23.19064 -3.32136,-17.94761 z m 41.92601,84.71357 c 0.78959,4.88274 -1.35103,12.94574 -5.17733,19.02553 9.24611,11.16524 27.53056,-8.50223 41.67965,0.014 17.32011,-10.86766 -20.44143,-26.80111 -23.65926,-9.5069 -7.21194,-5.53451 4.17035,-13.38058 -7.53081,-11.83691 -2.88232,-0.4969 -2.91548,-5.22406 -5.31225,2.30429 z m 69.68689,20.31386 c 11.56139,6.30804 24.00757,-5.64903 9.95376,-13.04384 -6.10647,-7.86426 -7.9161,-14.35764 -16.24213,-17.82553 -4.20973,-1.72498 9.13299,-20.39413 -5.19966,-11.81714 -9.97379,4.55955 -5.07744,18.09969 0.35598,22.31126 14.13591,8.76736 12.68936,3.77414 11.13205,20.37525 z M 455.10973,527.724 c -9.48343,6.02332 -8.81775,-8.69094 -4.94449,-12.99661 -0.70759,-4.85134 7.57584,-17.45313 4.61262,-3.06275 -2.16083,4.42394 3.58078,10.74267 0.33187,16.05936 z m -58.46407,5.31814 c 6.65237,16.04751 37.50551,-2.19237 53.75968,6.4823 7.8249,-2.92004 12.8963,-1.27699 10.1464,7.13033 -11.26619,4.07699 3.44517,10.01617 7.18145,8.98724 10.896,1.48069 13.58774,11.3517 25.46558,12.583 9.29903,2.77512 2.51535,-21.1178 18.90122,-13.20919 3.46826,5.49374 11.2081,2.71801 17.67218,4.22265 10.91623,3.69799 16.64123,-9.46926 27.03177,-7.6395 3.57234,-8.1799 2.5424,-32.82382 1.22127,-29.12908 -6.31828,5.74027 -16.67997,6.20668 -25.16768,10.33168 -4.32838,-3.27231 -8.42775,4.06038 -9.83355,-7.50468 -2.96178,-6.37497 -3.53905,-17.75599 -15.42917,-6.87918 -3.4853,0.75319 10.98758,8.66688 7.99229,12.79239 -7.29704,-4.77356 -6.57755,-0.93979 -7.92399,5.82019 -6.75011,-4.07731 -12.05284,-21.88319 -21.59007,-29.86893 -10.26061,-4.86619 -11.08462,-14.72155 -18.30194,-16.51702 -5.60114,14.78225 24.53907,24.81114 19.7469,29.0991 -12.01409,-7.35881 5.6243,13.82151 -10.26707,13.21073 0.10563,11.28979 -21.62965,-7.20008 -2.41616,-1.90699 13.66544,-8.06881 -10.96741,-17.61887 -15.43637,-25.41363 -4.282,-17.35549 -15.60654,8.64518 -24.31349,-5.79282 -0.90962,7.66569 -18.94351,13.54387 -17.17919,25.22421 -6.43515,6.04382 -11.75122,8.14567 -21.26006,7.9772 z m 2.65762,-140.92264 c 0.52201,0.14244 7.9639,-12.62416 6.97592,-4.98564 17.73579,2.26295 -0.95044,19.13269 -10.29728,7.6447 1.10712,-0.88635 2.21424,-1.77271 3.32136,-2.65906 z"
               inkscape:connector-curvature="0" />
          </g>
          <path
             mask="none"
             sodipodi:type="arc"
             style="color:#000000;fill:none;stroke:#000000;stroke-width:19.99986648999999872;stroke-linecap:butt;stroke-linejoin:miter;stroke-miterlimit:4;stroke-opacity:1;stroke-dasharray:none;stroke-dashoffset:0;marker:none;visibility:visible;display:inline;overflow:visible;enable-background:accumulate;fill-opacity:1"
             id="path5642"
             sodipodi:cx="250.84248"
             sodipodi:cy="551.45862"
             sodipodi:rx="88.302811"
             sodipodi:ry="88.302811"
             d="m 339.14529,551.45862 a 88.302811,88.302811 0 1 1 -176.60562,0 88.302811,88.302811 0 1 1 176.60562,0 z"
             transform="matrix(0,-1.753124,-1.7268979,0,1410.0315,1019.5552)" />
        </g>
        <rect
           transform="matrix(0.70175796,-0.71241544,-0.70175796,-0.71241544,0,0)"
           y="-578.14996"
           x="-100.97057"
           height="193.36658"
           width="17.578777"
           id="rect5646"
           style="fill:none;stroke:#000000;stroke-width:34.70196915;stroke-miterlimit:4;stroke-opacity:1;stroke-dasharray:none"
           mask="none" />
      </g>
    </g>
  </g>
</svg>
