<svg xmlns="http://www.w3.org/2000/svg" xmlns:xlink="http://www.w3.org/1999/xlink" xmlns:a="http://ns.adobe.com/AdobeSVGViewerExtensions/3.0/" version="1.1" x="0px" y="0px" width="100px" height="96.1538461538px" viewBox="-13.891 0.2 104 100" overflow="visible" enable-background="new -13.891 0.2 104 100" xml:space="preserve">
<defs>
</defs>
<path d="M55.111,0c4.5,0,8.143,3.642,8.143,8.139c0,4.493-3.643,8.137-8.143,8.137c-4.492,0-8.135-3.644-8.135-8.137  C46.977,3.642,50.619,0,55.111,0z"/>
<path d="M47.557,95.18c0,2.519,2.045,4.564,4.562,4.564s4.561-2.045,4.561-4.564l0.002-38.276h2.035L58.703,95.18  c0,2.519,2.043,4.564,4.564,4.564c2.52,0,4.561-2.045,4.561-4.564l0.021-65.986h2v24.317c0,4.89,6.381,4.89,6.365,0V28.674  c0-5.403-3.172-10.7-9.498-10.7l-18.238-0.008c-5.766,0-9.373,4.698-9.373,10.559v24.986c0,4.855,6.416,4.855,6.416,0V29.196h2.043  L47.557,95.18z"/>
<path d="M29.531,21.433c5.648,0,7.939,4.654,8.793,7.221l6.941,22.814c1.385,4.906-4.859,6.937-6.346,2.155l-6.244-20.945h-1.818  l10.824,37.257h-9.973v26.358c0,4.954-7.447,4.93-7.447,0V69.747h-3.041l-6.59,26.508c0,4.993-7.482,4.993-7.482,0l6.596-26.319  H3.738L14.48,32.678h-1.682L6.553,53.696c-1.484,4.584-7.781,2.702-6.34-2.208l6.934-22.834c0.744-2.603,3.018-7.221,8.721-7.221  H29.531z"/>
<path d="M24.801,4.322c4.469,0,8.092,3.624,8.092,8.094c0,4.47-3.623,8.095-8.092,8.095c-4.473,0-8.096-3.625-8.096-8.095  C16.705,7.946,20.328,4.322,24.801,4.322z"/>
</svg>