<svg xmlns="http://www.w3.org/2000/svg" xmlns:xlink="http://www.w3.org/1999/xlink" version="1.1" id="Layer_1" x="0px" y="0px" width="100px" height="100px" viewBox="0 0 100 100" enable-background="new 0 0 100 100" xml:space="preserve">
<g>
	<path d="M87.076,25.689h-9.997V15.065c0-7.771-6.322-14.092-14.092-14.092H36.844c-7.77,0-14.091,6.321-14.091,14.092v10.624   h-9.997c-6.957,0-12.597,5.639-12.597,12.596v47.867c0,6.957,5.64,12.597,12.597,12.597h74.32c6.956,0,12.597-5.64,12.597-12.597   V38.285C99.673,31.328,94.032,25.689,87.076,25.689z M31.571,15.065c0-2.908,2.365-5.274,5.273-5.274h26.143   c2.908,0,5.273,2.366,5.273,5.274v10.624h-36.69V15.065z M71.432,69.845c0,0.15-0.244,0.272-0.544,0.272H57.814v13.072   c0,0.302-0.121,0.545-0.271,0.545H42.291c-0.15,0-0.272-0.243-0.272-0.545V70.117H28.946c-0.301,0-0.545-0.122-0.545-0.273V54.593   c0-0.15,0.244-0.272,0.545-0.272h13.072V41.249c0-0.301,0.122-0.545,0.272-0.545h15.252c0.15,0,0.271,0.244,0.271,0.545V54.32   h13.073c0.3,0,0.544,0.122,0.544,0.272V69.845z"/>
</g>
</svg>