<svg xmlns="http://www.w3.org/2000/svg" xmlns:xlink="http://www.w3.org/1999/xlink" version="1.1" id="Layer_1" x="0px" y="0px" width="100.0px" height="100px" viewBox="0 0 566.93 566.93" enable-background="new 0 0 566.93 566.93" xml:space="preserve">
<path d="M437.326,244.441c-11.78,0-23.025,2.273-33.424,6.247l-46.153-89.741h37.764c5.534,0,10.028-4.488,10.028-10.028  s-4.494-10.028-10.028-10.028h-95.688c-5.534,0-10.028,4.488-10.028,10.028s4.494,10.028,10.028,10.028h35.795  c0.176,0.598,0.206,1.216,0.505,1.789l16.243,31.584H224.695l-5.815,0.023l-5.888-11.351h14.45c5.54,0,10.028-4.488,10.028-10.028  c0-5.54-4.489-10.028-10.028-10.028h-30.951c-3.504,0-6.751,1.83-8.57,4.824c-1.819,2.989-1.943,6.715-0.33,9.822l16.95,32.662  l-27.478,43.69c-0.083-0.041-0.176-0.066-0.263-0.108c-3.545-1.71-7.194-3.236-10.972-4.498c-0.371-0.124-0.727-0.284-1.103-0.402  c-4.071-1.304-8.276-2.268-12.564-3.009c-0.933-0.166-1.86-0.299-2.798-0.428c-4.345-0.618-8.74-1.046-13.25-1.046  c-51.863,0-94.059,42.196-94.059,94.059c0,51.873,42.195,94.069,94.059,94.069c48.4,0,88.354-36.754,93.481-83.814h52.213  c0.258,0.021,0.505,0.104,0.763,0.104c1.278,0,2.567-0.31,3.809-0.836c0.154-0.061,0.309-0.103,0.463-0.175  c0.108-0.052,0.227-0.072,0.335-0.124c0.135-0.071,0.207-0.195,0.335-0.267c0.572-0.31,1.088-0.723,1.598-1.134  c0.402-0.341,0.768-0.66,1.108-1.052c0.071-0.072,0.113-0.164,0.175-0.248c0.021-0.021,0.031-0.051,0.052-0.071  c0.268-0.33,0.577-0.619,0.813-0.99l75.93-120.819l18.831,36.62c-25.716,16.805-42.773,45.797-42.773,78.738  c0,51.873,42.206,94.069,94.079,94.069c51.874,0,94.069-42.196,94.069-94.069C531.396,286.637,489.2,244.441,437.326,244.441z   M349.009,214.377l-65.582,104.354l-54.151-104.354H349.009z M266.009,328.698h-36.341c-0.748-7.152-2.371-14.038-4.638-20.634  c-0.052-0.186-0.01-0.382-0.078-0.578c-0.222-0.628-0.566-1.185-0.798-1.813c-1.314-3.515-2.798-6.946-4.514-10.255  c-0.407-0.783-0.793-1.587-1.222-2.36c-1.819-3.288-3.88-6.41-6.065-9.441c-0.814-1.128-1.628-2.242-2.494-3.329  c-2.375-3.009-4.896-5.896-7.617-8.59c-0.789-0.778-1.633-1.479-2.448-2.226c-1.85-1.706-3.747-3.35-5.725-4.906l21.18-33.683  L266.009,328.698z M186.137,284.122c0.681,0.624,1.392,1.206,2.046,1.854c2.107,2.088,4.061,4.33,5.911,6.669  c0.711,0.897,1.386,1.824,2.056,2.752c1.654,2.288,3.211,4.659,4.602,7.153c0.407,0.73,0.778,1.483,1.16,2.226  c1.288,2.516,2.432,5.123,3.437,7.802c1.927,5.134,3.303,10.523,4.051,16.12h-55.667l29.534-46.962  C184.226,282.53,185.22,283.277,186.137,284.122z M136.114,412.512c-40.804,0-74.002-33.197-74.002-74.012  c0-40.805,33.198-74.002,74.002-74.002c3.53,0,6.998,0.335,10.42,0.82c0.742,0.108,1.479,0.211,2.206,0.34  c3.36,0.582,6.668,1.34,9.874,2.365c0.314,0.098,0.608,0.232,0.922,0.335c2.304,0.768,4.509,1.767,6.72,2.756l-39.228,62.376  c-2.948,4.688-1.536,10.874,3.149,13.821c1.659,1.051,3.504,1.546,5.328,1.546c0.279,0,0.552-0.083,0.83-0.104h72.997  C204.313,384.715,173.435,412.512,136.114,412.512z M437.326,412.512c-40.814,0-74.022-33.197-74.022-74.012  c0-25.18,12.667-47.431,31.94-60.804l33.796,65.72c1.772,3.453,5.287,5.442,8.926,5.442c1.546,0,3.112-0.36,4.575-1.113  c4.927-2.535,6.865-8.575,4.329-13.502l-33.733-65.602c7.596-2.638,15.707-4.143,24.189-4.143c40.815,0,74.013,33.197,74.013,74.002  C511.339,379.314,478.142,412.512,437.326,412.512z"/>
</svg>