<svg xmlns="http://www.w3.org/2000/svg" xmlns:xlink="http://www.w3.org/1999/xlink" version="1.1" id="Livello_1" x="0px" y="0px" width="100.0px" height="100px" viewBox="0 0 150 150" enable-background="new 0 0 150 150" xml:space="preserve">
<path fill="#000000" d="M110.436,88.045c20.142-20.141,20.142-52.797,0-72.939c-20.141-20.142-52.799-20.142-72.94,0  c-20.142,20.142-20.141,52.798,0,72.939c8.826,8.826,20.054,13.785,31.58,14.875v15.345l-16.131-0.001v9.78h16.131v20.491h9.779  l0.001-20.491h16.131v-9.778l-16.131-0.001l0.001-15.345C90.381,101.83,101.609,96.871,110.436,88.045z M44.412,81.131  c-16.296-16.297-16.296-42.813,0-59.109s42.812-16.296,59.108,0s16.296,42.812,0,59.109C87.224,97.426,60.708,97.426,44.412,81.131z  "/>
</svg>