<svg xmlns="http://www.w3.org/2000/svg" xmlns:xlink="http://www.w3.org/1999/xlink" version="1.1" id="Livello_1" x="0px" y="0px" width="100.0px" height="100px" viewBox="0 0 150 150" enable-background="new 0 0 150 150" xml:space="preserve">
<path d="M150,5.5c0-3.038-2.463-5.5-5.5-5.5H83.794c-3.038,0-5.5,2.462-5.5,5.5s2.462,5.5,5.5,5.5h47.428L94.947,47.275  C84.914,38.977,72.042,33.99,58.005,33.99C25.97,33.99,0,59.96,0,91.995S25.97,150,58.005,150c32.035,0,58.005-25.97,58.005-58.005  c0-14.037-4.987-26.909-13.285-36.942L139,18.777v48.086c0,3.037,2.463,5.5,5.5,5.5s5.5-2.463,5.5-5.5V6.157  c0-0.111-0.01-0.219-0.017-0.329C149.99,5.719,150,5.611,150,5.5z M58.005,139C32.086,139,11,117.914,11,91.995  S32.086,44.99,58.005,44.99c25.919,0,47.005,21.086,47.005,47.005S83.924,139,58.005,139z"/>
</svg>