<svg xmlns="http://www.w3.org/2000/svg" xmlns:xlink="http://www.w3.org/1999/xlink" xml:space="preserve" width="100px" height="93px" style="shape-rendering:geometricPrecision; text-rendering:geometricPrecision; image-rendering:optimizeQuality; fill-rule:evenodd; clip-rule:evenodd" viewBox="0 0 80.8247 75.2084">
 <defs>
  <style type="text/css">
   
    .fil0 {fill:#0A0B0C}
   
  </style>
 </defs>
 <g id="Layer_x0020_1">
  <metadata id="CorelCorpID_0Corel-Layer"/>
  <path class="fil0" d="M9.22709 56.9294c-5.09512,0 -9.22709,4.09278 -9.22709,9.13952 0,5.04669 4.13197,9.13947 9.22709,9.13947 5.09512,0 9.22709,-4.09278 9.22709,-9.13947 0,-0.0148438 -0.000513627,-0.0295849 -0.000564989,-0.0443773 0.790574,-0.099849 1.56954,-0.114641 2.33787,-0.0528522 -0.000359539,0.0324098 -0.00128407,0.0647169 -0.00128407,0.0972295 0,5.04669 4.13197,9.13947 9.22709,9.13947 5.09512,0 9.22709,-4.09278 9.22709,-9.13947 0,-0.311874 -0.0159738,-0.620204 -0.0467914,-0.924065 0.818721,-0.114487 1.62958,-0.122859 2.43259,-0.0285063 -0.032718,0.313107 -0.0498218,0.630887 -0.0498218,0.952572 0,5.04669 4.13197,9.13947 9.22709,9.13947 5.06015,0 9.16952,-4.0369 9.22576,-9.03582 0.784256,-0.052544 1.56399,-0.0304581 2.33936,0.0594266 0.0879842,4.97139 4.18493,8.97639 9.22499,8.97639 5.09512,0 9.22709,-4.09278 9.22709,-9.13947 0,-5.04674 -4.13197,-9.13952 -9.22709,-9.13952 -1.67488,0 -3.24545,0.44213 -4.59963,1.21519l-2.10787 -1.64818 1.5511 -0.000719077 6.72286 -2.21193c2.65786,-0.73161 1.51859,-4.74416 0.884362,-6.92096 -0.673262,-2.31065 -3.38598,-2.99619 -6.85994,-3.66637 -2.0241,-0.39051 -3.89252,-0.867104 -5.61748,-1.42069l0.119059 0.595858c0.11233,0.562113 -0.255632,1.02196 -0.817745,1.02196l-5.13627e-005 0c-0.562113,0 -1.11385,-0.45985 -1.22618,-1.02196l-0.274225 -1.3722c-1.19053,-0.460723 -2.30439,-0.96192 -3.347,-1.49964l0.0643574 1.26727c0.0285576,0.562113 -0.407922,1.02196 -0.970035,1.02196l-5.13627e-005 0c-0.562113,0 -1.04533,-0.45985 -1.07389,-1.02196l-0.124965 -2.46012c-1.08,-0.67208 -2.0711,-1.38864 -2.98052,-2.14408l-0.431241 2.3578c-0.102828,0.562113 -0.646759,1.02196 -1.20887,1.02196l-5.13627e-005 0c-0.562113,0 -0.937882,-0.45985 -0.835054,-1.02196l0.723905 -3.95801c-0.447523,-0.45004 -0.871419,-0.911173 -1.27246,-1.38212l-1.56954 3.21736c-0.253577,0.519841 -0.910814,0.847792 -1.46055,0.728785l-5.13627e-005 0c-0.549734,-0.119007 -0.792063,-0.641674 -0.538435,-1.16151l2.21168 -4.53368c-0.060762,-0.0861352 -0.120754,-0.172322 -0.180232,-0.25897 1.57041,-1.56194 -2.28923,-4.20881 -3.41521,-5.49041 -0.434425,-0.494417 -0.616763,-0.559493 -0.178485,-1.25838 0.262771,-0.419119 0.451375,-1.10183 1.13702,-1.06182 0.542133,-0.000564989 0.719796,-0.244435 0.726576,-0.654874l0.009348 -6.67006c0.0532631,-0.731918 -0.165645,-1.13306 -0.656826,-1.20353l-1.63415 -0.248544 0.521125 -5.91872c0.00241404,-3.23693 -1.60056,-5.41064 -5.09892,-6.39136 -4.38349,-1.32326 -9.32129,-2.7345 -13.6756,-2.74436 -1.83344,-0.19564 -3.49651,0.544804 -5.01859,2.06082l-3.42476 3.2021 -0.847843 6.95399c-0.677679,1.50107 -2.02636,2.68123 -2.03304,4.50327 0.319219,4.0613 -1.58069,8.70659 -2.371,13.0599 -0.180848,0.696272 -1.14934,1.39254 -0.542441,2.08882l0.671002 0.787698 -0.5428 0.851079 -0.642701 -0.292253c-2.54872,3.56621 -3.92919,8.46539 -3.67464,13.5889 0.341099,5.64799 2.39473,9.3535 7.44132,9.66424l-0.865512 0.937266c-0.950825,-0.328156 -1.97202,-0.506898 -3.03558,-0.506898zm36.5834 -0.423947c1.78865,3.39153 -6.56564,2.74626 -15.2101,0.00719077l15.2101 -0.00719077zm-28.5165 -42.863l-0.831561 6.59008c-0.0340534,0.271708 0.1489,0.551275 0.425283,0.575981 0.233495,0.0208019 0.406279,-0.630477 0.552868,-0.97476 0.651433,-1.53148 1.03886,-3.27935 1.37077,-5.20715 0.0462777,-0.2695 -0.126095,-0.536534 -0.309255,-0.748559l-0.64568 -0.747737c-0.288247,-0.333909 -0.528214,0.24048 -0.562421,0.512137zm-7.17243 28.712l7.47809 2.27192c0.261898,0.0795094 0.568841,-0.0494622 0.641828,-0.316959 0.0616865,-0.226047 -0.548913,-0.511212 -0.862019,-0.716098 -1.39249,-0.911225 -4.67862,-5.04335 -6.51766,-5.70983 -0.256916,-0.0930691 -0.599762,-0.0336939 -0.791396,0.172424 -0.788417,0.848306 -0.69468,2.18327 -0.353889,3.65456 0.0953804,0.412031 0.143045,0.564424 0.405046,0.643985zm30.7811 1.74695l6.34036 1.98024c0.261333,0.0815125 0.56879,-0.0494109 0.641828,-0.316959 0.0617379,-0.226098 -0.548913,-0.511161 -0.862019,-0.716098 -1.39254,-0.911225 -3.04483,-1.60077 -4.88397,-2.2673 -0.256967,-0.0931205 -0.550299,0.0295849 -0.791344,0.172424l-0.849898 0.503765c-0.379416,0.224866 0.143713,0.56237 0.405046,0.643934zm27.0589 4.36213l-6.61515 1.46723c-0.272633,0.0604025 -0.56124,-0.0931205 -0.59632,-0.363648 -0.0296362,-0.228615 0.620872,-0.463342 0.962742,-0.641828 1.52044,-0.793758 3.26892,-1.34786 5.20083,-1.86467 0.269911,-0.0722159 0.545574,0.0720618 0.766177,0.232211l0.777682 0.564732c0.347212,0.252088 -0.223273,0.545523 -0.495958,0.605977zm-57.8684 11.3223l-4.82568 5.22579c-2.13227,2.45837 1.75861,7.2654 7.28923,3.30565 1.03229,-0.670488 2.04336,-1.18766 3.03543,-1.5661 -0.34377,3.18058 -3.06255,5.65873 -6.36496,5.65873 -3.53519,0 -6.40205,-2.83958 -6.40205,-6.34098 0,-3.50144 2.86686,-6.34098 6.40205,-6.34098 0.293794,0 0.582658,0.0199287 0.865974,0.0578857zm13.5405 6.76369c1.21632,0.394414 2.40819,0.96644 3.58064,1.68028 1.95394,1.6829 3.7694,1.47195 5.49005,-0.0347725 1.25587,-0.993405 2.4933,-1.74448 3.71326,-2.26294 0.000924528,0.0455073 0.00179769,0.0911173 0.00179769,0.13683 0,3.50139 -2.86686,6.34098 -6.40205,6.34098 -3.37191,0 -6.13558,-2.58344 -6.38371,-5.86038zm20.7756 -0.6879c1.21601,0.511212 2.4141,1.26044 3.59508,2.23643 1.93699,1.65182 3.98112,1.26912 6.07404,-0.0384706 1.04241,-0.600327 2.07526,-1.04903 3.09963,-1.3606 -0.319527,3.20565 -3.05007,5.71091 -6.37051,5.71091 -3.53519,0 -6.40205,-2.83958 -6.40205,-6.34098 0,-0.0693909 0.00159224,-0.138422 0.00380084,-0.2073zm25.0692 -5.77743l5.97348 4.67071c2.00504,4.42048 -2.9004,6.19357 -7.53326,3.21695 -0.886263,-0.441719 -1.77674,-0.812917 -2.67245,-1.10306 0.397239,3.12388 3.08977,5.54111 6.35135,5.54111 3.53519,0 6.40205,-2.83958 6.40205,-6.34098 0,-3.50144 -2.86686,-6.34098 -6.40205,-6.34098 -0.742807,0 -1.45572,0.125736 -2.11912,0.356251z"/>
 </g>
</svg>