<svg xmlns="http://www.w3.org/2000/svg" xmlns:xlink="http://www.w3.org/1999/xlink" version="1.1" id="Layer_1" x="0px" y="0px" width="100px" height="100px" viewBox="0 0 100 100" enable-background="new 0 0 100 100" xml:space="preserve">
<g>
	<path d="M87.133,22.636l-9.691-3.659c-2.229,2.74-12.214,3.659-12.214,3.659H87.133L87.133,22.636z M20.76,22.636h11.56   c1.486-0.021,2.985-0.032,4.494-0.032c1.509,0,3.008,0.011,4.495,0.032h7.306c-3.117-2.398-8.193-3.958-13.927-3.958   C28.953,18.678,23.876,20.238,20.76,22.636L20.76,22.636z M20.192,16.035c4.897-3.969,12.053-7.378,19.822-9.064   c2.3-0.499,4.508-0.815,6.586-0.962c-2.716-0.788-6.136-0.855-9.931-0.032C29.827,7.463,23.581,11.45,20.192,16.035L20.192,16.035z    M25.893,16.769c7.687-2.592,18.067-3.549,28.619-2.199c3.122,0.4,6.064,0.976,8.776,1.698c-3.198-2.103-7.552-3.656-12.706-4.315   C41.289,10.764,31.868,12.796,25.893,16.769L25.893,16.769z M75.556,17.107c-2.63-5.057-8.176-9.972-14.702-12.51   c-3.619-1.407-7.008-1.876-9.812-1.523c2.029,0.47,4.159,1.127,6.354,1.981C64.806,7.936,71.338,12.422,75.556,17.107   L75.556,17.107z M56.313,67.86c-0.62,7.526,2.36,9.339,4.416,12.655c2.572,4.147,7.55,9.249,8.42,14.475   c0.397,2.376,0.535,3.827,0.571,4.702h-56.55c0.048-3.198-1.682-14.026,11.092-27.497c4.3-4.534,16.196-14.371,8.554-24.863   c-2.011-2.762-3.527-5.841-4.492-9.089c-2.121,1.041-9.198-8.44-11.439-10.838c-2.186-2.34-1.997-3.956-0.887-4.769   c4.818-2.15-0.81-3.105-1.458-3.27l0.414-3.209c0,0,4.671-4.657,11.008-8.358c7.163-4.184,15.17-6.749,23.044-6.938   C65.938,0.452,76.476,12.97,77.595,18.465l11.195,4.212v0.778c0,0-9.479,1.786-15.86,3.366c0.538,0.985,1.391,2.25,1.058,2.862   c-0.935,1.722-1.363,2.618,0.285,4.952c1.073,1.52,4.167,6.085,4.858,7.342c0.962,1.755-4.583,1.811-4.097,3.145   c0.222,0.609,0.968,2.146,1.208,2.741c0.291,0.719-1.432,1.177-1.442,1.678c0.002,0.192,1.063,0.293,0.895,1.549   c-0.102,0.769-1.656,0.165-1.745,3.098c-0.049,1.591,1.855,3.811-1.326,5.827c-1.891,1.196-6.363-0.214-10.159,0.314   c0,0-0.349,0.026-0.739,0.105l-7.227-14.06l2.35-15.526c-0.818-0.091-1.697-0.23-2.655-0.427c-0.327-0.068-0.654-0.122-0.978-0.163   l-2.011,13.299l-12.31-8.575c-1.211,0.746-2.367,1.468-3.459,2.073l15.791,11l7.243,14.091c-0.569,0.57-1.02,1.279-1.314,2.079   C56.721,65.179,56.435,66.382,56.313,67.86L56.313,67.86z"/>
</g>
</svg>